<?xml version="1.0" encoding="UTF-8"?>
<svg xmlns="http://www.w3.org/2000/svg" xmlns:xlink="http://www.w3.org/1999/xlink" width="3375" height="4500" viewBox="0 0 3375 4500">
<rect x="-337.5" y="-450" width="4050" height="5400" fill="rgb(69.726562%, 87.5%, 73.631287%)" fill-opacity="1"/>
<path fill-rule="nonzero" fill="rgb(56.054688%, 82.03125%, 61.914062%)" fill-opacity="1" d="M 1422.890625 1507.75 C 1361.148438 1511.960938 1292.230469 1577.308594 1235.230469 1577.191406 C 1170.089844 1577.058594 1097.5 1507.109375 1062.808594 1522.261719 C 1028.109375 1537.421875 1056.550781 1553.238281 1030.761719 1564.980469 C 1004.96875 1576.730469 974.375 1505.101562 911.742188 1531.421875 C 849.109375 1557.730469 756.757812 1772.421875 687.4375 1809.121094 C 618.121094 1845.828125 590.566406 1778.601562 521.117188 1796.921875 C 451.667969 1815.238281 350.566406 1925.359375 278.503906 1946.460938 C 206.441406 1967.550781 142.527344 1920.378906 95.398438 1943.398438 C 70.574219 1955.53125 31.851562 1908.671875 0 1902.429688 L 0 4500 L 3375 4500 L 3375 2317.800781 C 3229.839844 1936.25 3136.421875 2181.058594 3040.339844 2132.609375 C 2944.269531 2084.171875 2893.019531 2085.128906 2799.25 2022.75 C 2705.488281 1960.371094 2583.449219 1803.039062 2483.398438 1741.988281 C 2383.351562 1680.941406 2268.109375 1645.898438 2205.691406 1644.328125 C 2143.269531 1642.761719 2169.988281 1676.230469 2114.140625 1671.800781 C 2058.28125 1667.359375 1928.699219 1552.570312 1877.628906 1561.929688 C 1826.550781 1571.300781 1836.128906 1610.199219 1818.109375 1613.808594 C 1800.101562 1617.429688 1808.328125 1594.550781 1775.390625 1595.5 C 1742.449219 1596.460938 1683.609375 1679.238281 1625.859375 1668.75 C 1568.109375 1658.25 1516.621094 1528.160156 1448.851562 1510.058594 C 1440.378906 1507.789062 1431.710938 1507.140625 1422.890625 1507.75 Z M 1422.890625 1507.75 "/>
<path fill-rule="nonzero" fill="rgb(42.747498%, 76.5625%, 50.584412%)" fill-opacity="1" d="M 2114.691406 1830.820312 C 2097.679688 1829.910156 2080.511719 1831.039062 2063.25 1834.808594 C 1925.191406 1864.941406 1660.238281 2185.699219 1623.039062 2180.070312 C 1585.839844 2174.441406 1623.039062 2180.070312 1506.511719 2085.121094 C 1389.980469 1990.179688 836.472656 2448.230469 623.921875 2607.339844 C 411.371094 2766.449219 326.042969 2907.421875 222.550781 2974.191406 C 119.054688 3040.949219 63.558594 3036.511719 15.386719 3056.191406 C 6.117188 3059.96875 1.824219 3052.25 0 3039.621094 L 0 4500 L 3375 4500 L 3375 2405.410156 C 3279.960938 2244.910156 3247.148438 2323.910156 3122.789062 2236.179688 C 2982.738281 2137.378906 2691.199219 1933.230469 2570.359375 1912.488281 C 2449.53125 1891.75 2504.710938 1950.640625 2419.308594 1947.019531 C 2344.589844 1943.839844 2233.730469 1837.230469 2114.691406 1830.820312 Z M 0 2954.949219 L 0 2985.019531 C 0.660156 2972.160156 1.1875 2960.410156 0 2954.949219 Z M 0 2954.949219 "/>
<path fill-rule="nonzero" fill="rgb(29.026794%, 70.896912%, 38.818359%)" fill-opacity="1" d="M 1189.441406 2101.96875 C 1133.230469 2102.679688 1164.460938 2117.910156 1066.300781 2205.96875 C 954.109375 2306.609375 763.136719 2564.75 565.660156 2775.660156 C 414.53125 2937.058594 163.605469 3091.320312 0 3278.828125 L 0 4091.335938 C 343.246094 4078.957031 981.59375 4025.59375 1245.910156 3801.921875 C 1615.539062 3489.140625 1996.050781 3023.238281 1953.921875 2605.640625 C 1911.789062 2188.03125 1741.261719 2479.191406 1618.71875 2395.859375 C 1496.191406 2312.53125 1317.339844 2104.960938 1219.511719 2102.390625 C 1207.28125 2102.070312 1197.460938 2101.871094 1189.441406 2101.96875 Z M 1189.441406 2101.96875 "/>
<path fill-rule="nonzero" fill="rgb(15.696716%, 65.429688%, 27.050781%)" fill-opacity="1" d="M 2548.699219 2247.269531 C 2437.390625 2248.96875 2313.46875 2291.800781 2213.320312 2282.148438 C 1955.910156 2257.339844 1693.589844 2257.160156 1441.21875 2361.5 C 1249.890625 2440.589844 1069.660156 2608.21875 891.90625 2770.429688 C 600.097656 3036.730469 92.589844 3632.332031 0 3741.582031 L 0 4500 L 2438.378906 4500 C 2612.300781 4040.542969 2963.308594 3001.730469 2808.410156 2459.148438 C 2758.691406 2284.988281 2660 2245.570312 2548.699219 2247.269531 Z M 2548.699219 2247.269531 "/>
<path fill-rule="nonzero" fill="rgb(13.330078%, 54.881287%, 22.75238%)" fill-opacity="1" d="M 2868.070312 2041.410156 C 2814 2043.710938 2764.328125 2119.03125 2710.628906 2141.230469 C 2511.941406 2223.351562 2297.058594 2149.171875 2106.410156 2287.96875 C 1965.238281 2390.75 1865.890625 2657.210938 1728.78125 2779.96875 C 1507.71875 2977.890625 1268.710938 3117.230469 1027.449219 3159.769531 C 841.140625 3192.609375 651.960938 2987.210938 468.550781 3060.5 C 324.378906 3118.109375 105.871094 3391.359375 0 3532.25 L 0 4500 L 3375 4500 L 3375 2391.070312 C 3223.929688 2200.261719 3052.410156 2067.339844 2878.949219 2041.960938 C 2875.300781 2041.429688 2871.679688 2041.261719 2868.070312 2041.410156 Z M 2868.070312 2041.410156 "/>
<path fill-rule="nonzero" fill="rgb(10.594177%, 44.700623%, 18.431091%)" fill-opacity="1" d="M 3375 2326.960938 C 3305 2409.878906 3238.101562 2528.441406 3163.371094 2559.589844 C 2948.089844 2649.320312 2533.75 2953.53125 2533.75 2953.53125 L 2685.039062 4500 L 3375 4500 Z M 3375 2326.960938 "/>
<path fill-rule="nonzero" fill="rgb(8.227539%, 34.104919%, 14.109802%)" fill-opacity="1" d="M 2719.941406 2645.550781 C 2677.179688 2645.140625 2635.261719 2646.359375 2594.789062 2648.359375 C 2384.140625 2658.761719 2193.390625 2906.460938 1996.640625 3057.289062 C 1604.351562 3358.050781 941.761719 4074.714844 559.664062 4500 L 3339.390625 4500 L 3375 2912.488281 C 3193.679688 2695.210938 2945.28125 2647.710938 2719.941406 2645.550781 Z M 2719.941406 2645.550781 "/>
<path fill-rule="nonzero" fill="rgb(5.488586%, 23.535156%, 9.812927%)" fill-opacity="1" d="M 3188.910156 2885.820312 C 2925.039062 2882.210938 2613.21875 3254.480469 2341.628906 3349.660156 C 2036.199219 3456.699219 1718.058594 3495.089844 1430.980469 3729.457031 C 1239.359375 3885.898438 986.890625 4197.832031 762.980469 4500 L 3375 4500 L 3375 2967.859375 C 3316.808594 2910.789062 3254.339844 2886.71875 3188.910156 2885.820312 Z M 3188.910156 2885.820312 "/>
</svg>
